<?xml version="1.0" encoding="utf-8"?>
<!-- Generator: Adobe Illustrator 27.3.1, SVG Export Plug-In . SVG Version: 6.00 Build 0)  -->
<svg version="1.1" id="레이어_1" xmlns="http://www.w3.org/2000/svg" xmlns:xlink="http://www.w3.org/1999/xlink" x="0px"
	 y="0px" viewBox="0 0 180 180" style="enable-background:new 0 0 180 180;" xml:space="preserve">
<style type="text/css">
	.st0{fill:#7532A8;}
	.st1{fill:#FFFFFF;}
</style>
<g>
	<g id="레이어_2_00000125567864190633574410000009111907176940225937_">
		<g id="_레이어_2">
			<path class="st0" d="M48,0H132c26.5,0,48,21.5,48,48V132c0,26.5-21.5,48-48,48H48c-26.5,0-48-21.5-48-48V48C0,21.5,21.5,0,48,0z"
				/>
		</g>
	</g>
	<g>
		<path class="st1" d="M139.8,57.1c0-8.5-4-16.7-11-21.5c-4.1-2.8-9.1-4.4-14.4-4.4c-12.6,0-23.2,9.2-25.3,21.3c-10-7-23.6-6-32.6,3
			c-9.1,9.1-10,23.3-2.4,32.9c-12.3,1.9-21.8,12.6-21.8,25.4c0,7.6,3.2,14.1,8.2,18.7c4.7,4.3,11.1,6.5,17.5,6.5h76.9
			c2.8,0,5.1-2.3,5.1-5.1V57.1z"/>
		<path class="st0" d="M85.8,90.7c0.1-1.4,1.4-2.4,2.7-2.4h2c1.1,0,1.8-1.2,1.1-2.1c-1.3-1.9-3.5-3.1-6-3.1c-4,0.1-7.1,3.5-7.1,7.4
			c0,2.4,0,5.6,0,8c0,4,3.1,7.4,7.1,7.4c4,0.1,7.3-3.2,7.3-7.2v-2.6c0-1.5-1.2-2.6-2.6-2.6h-1.9C86.9,93.6,85.7,92.3,85.8,90.7z"/>
		<path class="st0" d="M108.1,90.7c0.1-1.4,1.4-2.4,2.7-2.4h2c1.1,0,1.8-1.2,1.1-2.1c-1.3-1.9-3.5-3.1-6-3.1c-4,0.1-7.1,3.5-7.1,7.4
			c0,2.4,0,5.6,0,8c0,4,3.1,7.4,7.1,7.4c4,0.1,7.3-3.2,7.3-7.2v-2.6c0-1.5-1.2-2.6-2.6-2.6h-1.9C109.2,93.6,107.9,92.3,108.1,90.7z"
			/>
	</g>
</g>
</svg>
